<svg xmlns="http://www.w3.org/2000/svg" width="112" height="57" viewBox="0 0 112 57">
  <g fill="none">
    <path fill="#EB7077" d="M95,30.2 L111.3,30.2 C105.6,32.1 103.8,35.9 102.8,46.7 C102.1,54.4 98.6,56.4 98.6,56.4 C96,56.4 93.4,45.3 91.1,33.5 C92,31.5 93.2,30.5 95,30.2 Z"/>
    <path fill="#EB7077" d="M98.5,56.3 L82.2,56.3 C85.1,56.3 87.1,50.8 88.3,43.8 C89.1,39.1 89.9,35.7 91,33.4 C93.3,45.2 95.9,56.3 98.5,56.3 Z"/>
    <path fill="#F6A2AD" d="M91,33.4 C89.8,35.6 89,39.1 88.3,43.8 C87.1,50.8 85.1,56.3 82.2,56.3 C79.1,55.6 76.6,43.8 73.3,25.8 C73.2,25.2 73.1,24.7 73,24.1 C75.5,11.2 78.1,-3.55271368e-15 80.7,-3.55271368e-15 L81.6,-3.55271368e-15 C84.7,0.7 87.2,12.5 90.5,30.5 C90.7,31.4 90.8,32.4 91,33.4 Z"/>
    <g fill="#EB7077" transform="translate(47)">
      <path d="M18.3,0 L33.7,0 C31.1,0 28.4,11.2 26,24.2 C23.7,12 21,0 18.3,0 Z"/>
      <path d="M26,24.2 C25.8,25.5 25.5,26.8 25.3,28.2 C21.6,48.4 19.4,55.8 16.8,56.4 C13.9,56.4 11.1,43.3 8.8,30.5 C8.8,30.3 8.7,30.1 8.7,29.9 C8.8,29.3 8.9,28.8 9,28.2 C12.7,7.9 14.9,0.6 17.4,0 L18.3,0 C21,0 23.7,12 26,24.2 Z"/>
      <path d="M16.8,56.3 L0.5,56.3 C3.3,56.3 6.1,43.8 8.6,29.8 C8.6,30 8.7,30.2 8.7,30.4 C11.1,43.3 14,56.3 16.8,56.3 Z"/>
    </g>
    <path fill="#F6A2AD" d="M55.7,29.9 C53.1,43.9 50.3,56.4 47.6,56.4 C44.5,55.7 42,43.9 38.7,25.9 C38.6,25.3 38.5,24.8 38.4,24.2 C40.8,11.2 43.4,0 46,0 L46.9,0 C50,0.7 52.4,12.2 55.7,29.9 Z"/>
    <g fill="#EB7077" transform="translate(12)">
      <path d="M18.6,0 L34,0 C31.4,0 28.8,11.2 26.3,24.2 C24,12 21.3,0 18.6,0 Z"/>
      <path d="M26.3,24.2 C26.1,25.5 25.8,26.8 25.6,28.2 C21.9,48.4 19.7,55.8 17.1,56.4 C14.2,56.4 15.3,55.9 13.5,47.8 C11.7,39.7 10.3,34.9 8.4,32.4 C8.7,31 8.9,29.6 9.2,28.2 C13,7.9 15.2,0.6 17.7,0 L18.6,0 C21.3,0 24,12 26.3,24.2 Z"/>
      <path d="M17.1,56.3 L0.8,56.3 C3.4,56.3 6,45.2 8.5,32.3 C10.3,34.8 11.7,39.6 13.6,47.7 C15.4,55.8 14.2,56.3 17.1,56.3 Z"/>
    </g>
    <path fill="#F6A2AD" d="M20.5,32.3 C18,45.2 15.4,56.3 12.8,56.3 C12.5,55.9 10.7,56.3 9,46.3 C7.5,37.1 4.8,31.3 0.4,30.2 L16.7,30.2 C18.3,30.2 19.4,30.9 20.5,32.3 Z"/>
  </g>
</svg>
